# xmcd
#
# Track frame offsets:
#	150
#	17872
#	33263
#	49757
#	61898
#	76305
#	92863
#	109453
#	128866
#	144780
#	160267
#	178684
#	192948
#	210404
#	229133
#	247615
#	266967
#
# Disc length: 3816 seconds
#
# Revision: 0
# Processed by: cddbd v1.5.1PL2 Copyright (c) Steve Scherf et al.
# Submitted via: EasyCDDAExtractor 4.6.9.1
#
DISCID=e40ee611
DTITLE=Kenny Chesney - Greatest Hits - Limited Edition
DYEAR=2000
DGENRE=Country
TTITLE0=I Lost It (previously unreleased)
TTITLE1=Don't Happen Twice (previously unreleased)
TTITLE2=The Tin Man
TTITLE3=Fall In Love
TTITLE4=All I Need To Know
TTITLE5=For The First Time (previously unreleased)
TTITLE6=Me And You
TTITLE7=Back Where I Come From (Live Version)
TTITLE8=When I Close My Eyes
TTITLE9=She's Got It All
TTITLE10=That's Why I'm Here
TTITLE11=How Forever Feels
TTITLE12=You Had Me From Hello
TTITLE13=She Thinks My Tractor's Sexy
TTITLE14=What I Need To Do
TTITLE15=Baptism (Duet With Randy Travis)
TTITLE16=Because Of Your Love (previously unreleased)
EXTD=
EXTT0=
EXTT1=
EXTT2=
EXTT3=
EXTT4=
EXTT5=
EXTT6=
EXTT7=
EXTT8=
EXTT9=
EXTT10=
EXTT11=
EXTT12=
EXTT13=
EXTT14=
EXTT15=
EXTT16=
PLAYORDER=
